<svg width="24" height="24" viewBox="0 0 24 24" fill="none" xmlns="http://www.w3.org/2000/svg">
<path d="M17.023 16.6163C16.5546 16.1867 16.0988 15.7449 15.656 15.2912C15.284 14.9292 15.06 14.6659 15.06 14.6659L12.26 13.3858C13.381 12.1686 13.9997 10.6016 14 8.97871C14 5.28392 10.86 2.27658 7 2.27658C3.14 2.27658 0 5.28392 0 8.97871C0 12.6735 3.14 15.6808 7 15.6808C8.763 15.6808 10.37 15.0489 11.603 14.0158L12.94 16.6967C12.94 16.6967 13.215 16.9112 13.593 17.2673C13.98 17.6149 14.489 18.085 14.977 18.5762L16.335 19.9089L16.939 20.5274L19.06 18.4967L18.414 17.9184C18.035 17.5622 17.529 17.0892 17.023 16.6163ZM7 13.7659C4.243 13.7659 2 11.6184 2 8.97871C2 6.33903 4.243 4.19147 7 4.19147C9.757 4.19147 12 6.33903 12 8.97871C12 11.6184 9.757 13.7659 7 13.7659Z" fill="black"/>
</svg>
